<svg width="183" height="81" viewBox="0 0 183 81" fill="none" xmlns="http://www.w3.org/2000/svg">
<path d="M158.271 40.2776C158.271 39.2609 158.254 38.2267 158.271 37.2101C158.324 35.5273 159.569 34.4055 161.321 34.4231C162.987 34.4406 164.231 35.6325 164.249 37.2627C164.266 39.3135 164.266 41.3468 164.249 43.3976C164.231 45.0628 162.952 46.2898 161.269 46.3074C159.586 46.3249 158.307 45.0979 158.271 43.4327C158.254 42.381 158.271 41.3293 158.271 40.2776Z" fill="#00AABC"/>
<path d="M180.954 35.2295C180.077 34.2655 179.043 33.5293 177.921 32.8807C159.797 22.4688 141.69 12.0744 123.583 1.68001C122.584 1.1191 121.567 0.645827 120.463 0.330314C116.396 -0.809037 113.101 1.04898 111.962 5.13312C111.664 6.18483 111.523 7.25407 111.523 8.34083C111.523 29.4627 111.523 50.5845 111.523 71.7063C111.523 72.7054 111.646 73.687 111.874 74.6511C112.75 78.3671 115.397 80.3478 119.043 79.9797C120.638 79.822 122.093 79.191 123.46 78.4022C133.785 72.4074 144.091 66.4127 154.416 60.4355C154.959 60.12 155.152 59.7869 155.152 59.1384C155.134 51.829 155.134 44.5372 155.134 37.2278C155.134 34.2129 157.536 31.7238 160.638 31.4784C163.863 31.2155 166.843 33.2313 167.211 36.2111C167.562 38.9631 167.439 41.7501 167.246 44.5021C167.194 45.1331 166.931 45.6765 166.633 46.2199C165.126 48.8141 161.97 49.9009 159.026 48.8316C158.71 48.7265 158.254 48.2882 158.254 49.1471C158.272 52.0919 158.272 55.0367 158.272 58.1393C158.535 57.999 158.675 57.9464 158.798 57.8763C165.336 54.0902 171.856 50.2865 178.395 46.4828C179.324 45.9394 180.183 45.2733 180.919 44.467C183.583 41.5924 183.601 38.1393 180.954 35.2295ZM127.772 43.5731C127.755 46.886 125.09 49.4101 121.637 49.4101C118.219 49.4101 115.59 46.9035 115.537 43.6257C115.485 40.2251 117.133 37.8413 120.095 37.1577C121.602 36.8071 123.11 36.9298 124.617 37.6835C124.722 36.3338 124.161 35.4749 123.18 34.9491C122.146 34.3706 121.059 34.4232 120.007 35.0192C119.937 35.0542 119.867 35.1244 119.797 35.1769C118.64 36.0534 117.764 36.0709 117.133 35.2295C116.537 34.4232 116.835 33.5293 118.044 32.7054C120.112 31.3207 122.339 31.1804 124.512 32.2672C126.703 33.354 127.807 35.212 127.772 37.7186C127.737 39.6467 127.772 41.6099 127.772 43.5731ZM139.481 46.0271C138.78 48.2006 136.502 49.6555 134.048 49.4627C132.417 49.34 130.998 48.7265 129.893 47.4644C129.175 46.6406 129.14 45.8343 129.806 45.2383C130.507 44.6073 131.401 44.6423 132.137 45.4136C132.663 45.957 133.259 46.3251 134.012 46.4478C135.117 46.623 136.116 46.1322 136.466 45.2208C136.852 44.2216 136.502 43.3627 135.432 42.7317C134.293 42.0656 133.154 41.4171 132.032 40.751C129.771 39.4364 128.894 37.5258 129.49 35.2646C130.121 32.9508 132.049 31.531 134.573 31.531C136.449 31.496 137.974 32.1971 139.218 33.5994C139.867 34.3356 139.902 35.1068 139.306 35.7028C138.675 36.3338 137.693 36.3864 137.045 35.7028C136.291 34.914 135.467 34.4232 134.363 34.5109C133.399 34.581 132.733 35.1419 132.54 36.0008C132.33 36.9648 132.593 37.5783 133.487 38.1217C134.661 38.8229 135.853 39.5065 137.045 40.1901C139.359 41.5748 140.235 43.6607 139.481 46.0271ZM153.557 43.3803C153.539 46.8334 151.015 49.34 147.509 49.3925C144.056 49.4451 141.48 46.9561 141.287 43.538C141.006 38.5775 145.669 35.7729 149.893 37.4381C150.034 37.4907 150.156 37.5433 150.384 37.6309C150.507 36.4039 149.998 35.5801 149.105 35.0192C148.088 34.3706 147.019 34.3882 145.949 34.914C145.827 34.9841 145.704 35.0542 145.581 35.1419C144.407 36.0008 143.548 36.0358 142.917 35.212C142.303 34.4057 142.601 33.5117 143.828 32.6879C145.932 31.2856 148.158 31.1629 150.384 32.2847C152.54 33.389 153.609 35.2295 153.574 37.6835C153.539 39.5941 153.574 41.4872 153.557 43.3803Z" fill="#00AABC"/>
<path d="M150.402 43.1871C150.647 45.273 148.964 46.4299 147.474 46.4474C145.879 46.465 144.354 45.2906 144.389 43.117C144.424 41.3466 145.564 39.9093 147.404 39.8918C149.052 39.8743 150.647 41.1363 150.402 43.1871Z" fill="#00AABC"/>
<path d="M124.635 43.1871C124.863 45.2204 123.251 46.465 121.621 46.4474C119.815 46.4299 118.658 45.1854 118.658 43.2047C118.658 41.1714 119.798 39.8742 121.638 39.8918C123.391 39.9093 124.846 41.2064 124.635 43.1871Z" fill="#00AABC"/>
<path d="M37.9684 30.7977H34.8892L34.297 32.5268H32.4258L35.5998 24.1182H37.2341L40.4318 32.5268H38.5605L37.9684 30.7977ZM35.3392 29.4002H37.471L36.4051 26.2499L35.3392 29.4002Z" fill="#F26F22"/>
<path d="M41.2148 32.5512V24.1426H43.844C44.602 24.1426 45.2652 24.3084 45.8574 24.64C46.4495 24.9716 46.9233 25.4453 47.2549 26.0612C47.5865 26.677 47.7523 27.3639 47.7523 28.1456V28.5246C47.7523 29.3062 47.5865 29.9931 47.2549 30.609C46.9233 31.2248 46.4732 31.6985 45.8811 32.0301C45.2889 32.3617 44.6257 32.5275 43.8677 32.5275H41.2148V32.5512ZM42.9676 25.5401V31.1537H43.8203C44.5072 31.1537 45.0283 30.9406 45.4073 30.4905C45.7626 30.0405 45.9521 29.4246 45.9758 28.5956V28.1456C45.9758 27.2929 45.7863 26.6533 45.431 26.2033C45.0757 25.7533 44.5546 25.5401 43.844 25.5401H42.9676Z" fill="#F26F22"/>
<path d="M49.0293 32.5512V24.1426H51.6348C52.3928 24.1426 53.056 24.3084 53.6481 24.64C54.2403 24.9716 54.714 25.4453 55.0456 26.0612C55.3772 26.677 55.543 27.3639 55.543 28.1456V28.5246C55.543 29.3062 55.3772 29.9931 55.0456 30.609C54.714 31.2248 54.264 31.6985 53.6718 32.0301C53.0797 32.3617 52.4164 32.5275 51.6585 32.5275H49.0293V32.5512ZM50.7821 25.5401V31.1537H51.6348C52.3217 31.1537 52.8428 30.9406 53.2218 30.4905C53.5771 30.0405 53.7666 29.4246 53.7903 28.5956V28.1456C53.7903 27.2929 53.6008 26.6533 53.2455 26.2033C52.8902 25.7533 52.3691 25.5401 51.6585 25.5401H50.7821Z" fill="#F26F22"/>
<path d="M58.6943 32.5512H56.9415V24.1426H58.6943V32.5512Z" fill="#F26F22"/>
<path d="M66.5827 25.5401H63.9772V32.5512H62.2244V25.5401H59.6426V24.1426H66.6064V25.5401H66.5827Z" fill="#F26F22"/>
<path d="M69.446 32.5512H67.6932V24.1426H69.446V32.5512Z" fill="#F26F22"/>
<path d="M78.094 28.5241C78.094 29.3531 77.9519 30.0874 77.6439 30.7032C77.336 31.3191 76.9333 31.8165 76.3649 32.1481C75.8201 32.4797 75.1806 32.6455 74.47 32.6455C73.7594 32.6455 73.1198 32.4797 72.5751 32.1481C72.0303 31.8165 71.5802 31.3428 71.296 30.7032C70.9881 30.0874 70.846 29.3768 70.8223 28.5478V28.1214C70.8223 27.2924 70.9644 26.5581 71.2723 25.9423C71.5802 25.3027 72.0066 24.829 72.5514 24.4974C73.0962 24.1658 73.7357 24 74.4463 24C75.1569 24 75.7964 24.1658 76.3412 24.4974C76.886 24.829 77.3123 25.3264 77.6203 25.9423C77.9282 26.5818 78.0703 27.2924 78.0703 28.1214V28.5241H78.094ZM76.3175 28.1451C76.3175 27.2687 76.1517 26.6055 75.8438 26.1318C75.5122 25.6817 75.0621 25.4449 74.47 25.4449C73.8778 25.4449 73.4278 25.6817 73.0962 26.1318C72.7645 26.5818 72.6224 27.245 72.5987 28.1214V28.5241C72.5987 29.3768 72.7645 30.04 73.0725 30.5137C73.4041 30.9875 73.8541 31.2243 74.4463 31.2243C75.0384 31.2243 75.4885 30.9875 75.7964 30.5374C76.1043 30.0874 76.2701 29.4242 76.2701 28.5478V28.1451H76.3175Z" fill="#F26F22"/>
<path d="M86.3131 32.5512H84.5604L81.1258 27.0323V32.5512H79.373V24.1426H81.1258L84.5604 29.6852V24.1426H86.3131V32.5512Z" fill="#F26F22"/>
<path d="M92.777 30.7977H89.6978L89.1056 32.5268H87.2344L90.4084 24.1182H92.0427L95.2404 32.5268H93.3691L92.777 30.7977ZM90.1478 29.4002H92.2796L91.2137 26.2499L90.1478 29.4002Z" fill="#F26F22"/>
<path d="M97.776 31.1537H101.518V32.5512H96.0232V24.1426H97.776V31.1537Z" fill="#F26F22"/>
<path d="M4.52409 42.1198C4.52409 41.8119 4.40566 41.575 4.19249 41.4092C3.97931 41.2434 3.57664 41.0776 2.98448 40.8881C2.41601 40.6987 1.94228 40.5328 1.61067 40.3434C0.686904 39.8696 0.236864 39.2064 0.236864 38.4011C0.236864 37.9747 0.355295 37.5957 0.615845 37.2641C0.852709 36.9325 1.208 36.672 1.68173 36.4825C2.13177 36.293 2.65287 36.1982 3.22134 36.1982C3.78982 36.1982 4.31092 36.293 4.76096 36.5062C5.211 36.7193 5.56629 37.0036 5.80316 37.3589C6.06371 37.7379 6.18214 38.1405 6.18214 38.6142H4.52409C4.52409 38.259 4.40566 37.9747 4.1688 37.7852C3.93194 37.5957 3.60033 37.4773 3.19766 37.4773C2.79499 37.4773 2.46338 37.5721 2.2502 37.7379C2.01334 37.9037 1.9186 38.1168 1.9186 38.4011C1.9186 38.6616 2.06071 38.8748 2.32126 39.0406C2.58181 39.2064 2.98448 39.3722 3.48189 39.5143C4.42935 39.7986 5.11625 40.1302 5.54261 40.5328C5.96896 40.9355 6.18214 41.4566 6.18214 42.0488C6.18214 42.7357 5.92159 43.2568 5.3768 43.6358C4.8557 44.0147 4.14511 44.2042 3.24503 44.2042C2.62919 44.2042 2.06071 44.0858 1.53961 43.8726C1.01851 43.6594 0.639532 43.3515 0.378982 42.9725C0.118432 42.5936 0 42.2383 0 41.7172H1.68173C1.68173 42.5699 2.20283 43.0199 3.26872 43.0199C3.67139 43.0199 3.97931 42.9489 4.19249 42.783C4.42935 42.6172 4.52409 42.4041 4.52409 42.1198Z" fill="#F26F22"/>
<path d="M9.8528 41.0542L8.9764 41.9542V44.1808H7.31836V36.3643H8.9764V39.9172L9.71068 38.9461L11.7714 36.3643H13.8084L10.9424 39.8462L13.9032 44.1808H11.9135L9.8528 41.0542Z" fill="#F26F22"/>
<path d="M16.3182 44.1808H14.6602V36.3643H16.3182V44.1808Z" fill="#F26F22"/>
<path d="M19.5177 42.878H23.0469V44.1808H17.8359V36.3643H19.494V42.878H19.5177Z" fill="#F26F22"/>
<path d="M25.6759 42.878H29.2051V44.1808H23.9941V36.3643H25.6522V42.878H25.6759Z" fill="#F26F22"/>
<path d="M37.5646 42.5701H34.6512L34.1064 44.1808H32.33L35.3381 36.3643H36.8777L39.9096 44.1808H38.1331L37.5646 42.5701ZM35.0776 41.2673H37.0909L36.0724 38.3302L35.0776 41.2673Z" fill="#F26F22"/>
<path d="M46.8759 41.5753C46.8049 42.428 46.497 43.0675 45.9048 43.5649C45.3363 44.0387 44.5547 44.2992 43.6072 44.2992C42.565 44.2992 41.7597 43.9676 41.1675 43.2807C40.5754 42.6175 40.2675 41.67 40.2675 40.5094V40.0357C40.2675 39.2777 40.4096 38.6145 40.6701 38.046C40.9544 37.4775 41.3333 37.0275 41.8544 36.7196C42.3519 36.4116 42.944 36.2695 43.6309 36.2695C44.5547 36.2695 45.3126 36.5064 45.8811 37.0038C46.4496 37.4775 46.7812 38.1644 46.8759 39.0408H45.2179C45.1705 38.5434 45.0284 38.1644 44.7916 37.9513C44.531 37.7144 44.152 37.6197 43.6546 37.6197C43.1098 37.6197 42.6835 37.8091 42.3992 38.1881C42.115 38.5671 41.9729 39.1593 41.9729 39.9883V40.5804C41.9729 41.4332 42.115 42.049 42.3755 42.428C42.6361 42.807 43.0624 43.0201 43.6309 43.0201C44.152 43.0201 44.531 42.9017 44.7916 42.6885C45.0521 42.4517 45.1942 42.1201 45.2179 41.6226H46.8759V41.5753Z" fill="#F26F22"/>
<path d="M54.5981 40.462C54.5981 41.1963 54.4796 41.8358 54.2428 42.3569C54.0059 42.9017 53.6506 43.3281 53.2242 43.6597L54.5744 44.6782L53.5085 45.5783L51.7794 44.2518C51.5899 44.2755 51.3767 44.2992 51.1635 44.2992C50.5003 44.2992 49.8845 44.1334 49.3634 43.8255C48.8423 43.5176 48.4396 43.0675 48.1317 42.499C47.8474 41.9306 47.7053 41.2674 47.6816 40.5094V40.1304C47.6816 39.3724 47.8238 38.6855 48.108 38.0934C48.3922 37.5012 48.7949 37.0512 49.316 36.7433C49.8371 36.4353 50.4293 36.2695 51.1162 36.2695C51.7794 36.2695 52.3952 36.4353 52.9163 36.7433C53.4374 37.0512 53.8401 37.5012 54.1243 38.0934C54.4086 38.6855 54.5507 39.3488 54.5507 40.1304V40.462H54.5981ZM52.9163 40.1067C52.9163 39.2777 52.7742 38.6619 52.4663 38.2355C52.1584 37.8091 51.732 37.596 51.1635 37.596C50.5951 37.596 50.1687 37.8091 49.8608 38.2355C49.5529 38.6619 49.4107 39.2777 49.4107 40.083V40.462C49.4107 41.2674 49.5529 41.8832 49.8608 42.3096C50.1687 42.7596 50.5951 42.9728 51.1635 42.9728C51.732 42.9728 52.1584 42.7596 52.4426 42.3332C52.7505 41.9069 52.8926 41.291 52.8926 40.4857V40.1067H52.9163Z" fill="#F26F22"/>
<path d="M61.9382 36.3643V41.5042C61.9382 42.3569 61.654 43.0438 61.1092 43.5412C60.5644 44.0386 59.8065 44.2992 58.8353 44.2992C57.8879 44.2992 57.1536 44.0623 56.5851 43.5649C56.0403 43.0912 55.7561 42.428 55.7324 41.5753V36.3643H57.3905V41.5279C57.3905 42.049 57.5089 42.4043 57.7694 42.6411C58.03 42.878 58.3616 42.9964 58.8116 42.9964C59.7591 42.9964 60.2328 42.5227 60.2328 41.5753V36.3643H61.9382Z" fill="#F26F22"/>
<path d="M65.0662 44.1808H63.4082V36.3643H65.0662V44.1808Z" fill="#F26F22"/>
<path d="M70.798 42.1198C70.798 41.8119 70.6796 41.575 70.4664 41.4092C70.2532 41.2434 69.8506 41.0776 69.2584 40.8881C68.6899 40.6987 68.2162 40.5328 67.8846 40.3434C66.9608 39.8696 66.5108 39.2064 66.5108 38.4011C66.5108 37.9747 66.6292 37.5957 66.8898 37.2641C67.1266 36.9325 67.4819 36.672 67.9557 36.4825C68.4057 36.293 68.9268 36.1982 69.4953 36.1982C70.0637 36.1982 70.5848 36.293 71.0349 36.5062C71.4849 36.7193 71.8402 37.0036 72.0771 37.3589C72.3376 37.7379 72.4561 38.1405 72.4561 38.6142H70.798C70.798 38.259 70.6796 37.9747 70.4427 37.7852C70.2059 37.5957 69.8743 37.4773 69.4716 37.4773C69.0689 37.4773 68.7373 37.5721 68.5241 37.7379C68.2873 37.9037 68.1925 38.1168 68.1925 38.4011C68.1925 38.6616 68.3346 38.8748 68.5952 39.0406C68.8557 39.2064 69.2584 39.3722 69.7558 39.5143C70.7033 39.7986 71.3902 40.1302 71.8165 40.5328C72.2429 40.9355 72.4561 41.4566 72.4561 42.0488C72.4561 42.7357 72.1955 43.2568 71.6507 43.6358C71.1296 44.0147 70.419 44.2042 69.519 44.2042C68.9031 44.2042 68.3346 44.0858 67.8135 43.8726C67.2924 43.6594 66.9135 43.3515 66.6529 42.9725C66.3924 42.5936 66.2502 42.1435 66.2502 41.6461H67.932C67.932 42.4988 68.4531 42.9489 69.519 42.9489C69.9216 42.9489 70.2295 42.8778 70.4427 42.712C70.6559 42.5462 70.798 42.4041 70.798 42.1198Z" fill="#F26F22"/>
<path d="M75.3709 44.1808H73.7129V36.3643H75.3709V44.1808Z" fill="#F26F22"/>
<path d="M82.8309 37.667H80.3438V44.1808H78.6858V37.667H76.2461V36.3643H82.8309V37.667Z" fill="#F26F22"/>
<path d="M85.5565 44.1808H83.8984V36.3643H85.5565V44.1808Z" fill="#F26F22"/>
<path d="M93.727 40.462C93.727 41.22 93.5848 41.9069 93.3006 42.4754C93.0164 43.0438 92.6137 43.4939 92.0926 43.8255C91.5715 44.1334 90.9793 44.2992 90.2924 44.2992C89.6292 44.2992 89.0134 44.1334 88.4923 43.8255C87.9712 43.5176 87.5685 43.0675 87.2606 42.499C86.9763 41.9306 86.8342 41.2674 86.8105 40.5094V40.1304C86.8105 39.3724 86.9527 38.6855 87.2369 38.0934C87.5211 37.5012 87.9238 37.0512 88.4449 36.7433C88.966 36.4353 89.5582 36.2695 90.2451 36.2695C90.932 36.2695 91.5241 36.4353 92.0452 36.7433C92.5663 37.0512 92.969 37.5012 93.2532 38.0934C93.5375 38.6855 93.6796 39.3488 93.6796 40.1304V40.462H93.727ZM92.0452 40.1067C92.0452 39.2777 91.9031 38.6619 91.5952 38.2355C91.2873 37.8091 90.8609 37.596 90.2924 37.596C89.724 37.596 89.2976 37.8091 88.9897 38.2355C88.6818 38.6619 88.5396 39.2777 88.5396 40.083V40.462C88.5396 41.2674 88.6818 41.8832 88.9897 42.3096C89.2976 42.7596 89.724 42.9728 90.2924 42.9728C90.8609 42.9728 91.2873 42.7596 91.5715 42.3332C91.8794 41.9069 92.0215 41.291 92.0215 40.4857V40.1067H92.0452Z" fill="#F26F22"/>
<path d="M101.52 44.1808H99.8621L96.617 39.0408V44.1808H94.959V36.3643H96.617L99.8621 41.5279V36.3643H101.52V44.1808Z" fill="#F26F22"/>
<path d="M33.7574 53.0865V55.8815H32.123V47.9229H35.226C35.8181 47.9229 36.3392 48.0413 36.8129 48.2545C37.263 48.4676 37.6183 48.7756 37.8551 49.1782C38.092 49.5809 38.2104 50.0309 38.2104 50.552C38.2104 51.3337 37.9499 51.9495 37.4051 52.3996C36.8603 52.8496 36.126 53.0865 35.1786 53.0865H33.7574ZM33.7574 51.76H35.226C35.6523 51.76 35.9839 51.6653 36.2208 51.4521C36.4576 51.2389 36.5524 50.9547 36.5524 50.5757C36.5524 50.1967 36.434 49.8651 36.1971 49.6283C35.9602 49.3914 35.6523 49.273 35.2496 49.2493H33.7337V51.76H33.7574Z" fill="#F26F22"/>
<path d="M42.2828 52.968H40.9801V55.8815H39.3457V47.9229H42.3065C43.254 47.9229 43.9645 48.136 44.4856 48.5624C45.0067 48.9887 45.2436 49.5809 45.2436 50.3389C45.2436 50.8836 45.1252 51.3337 44.8883 51.689C44.6514 52.0443 44.2962 52.3522 43.8224 52.5654L45.5515 55.8104V55.8815H43.7987L42.2828 52.968ZM40.9801 51.6416H42.3065C42.7092 51.6416 43.0408 51.5469 43.254 51.3337C43.4671 51.1205 43.5856 50.8363 43.5856 50.4573C43.5856 50.0783 43.4671 49.7941 43.254 49.5809C43.0408 49.3677 42.7092 49.2493 42.2828 49.2493H40.9801V51.6416Z" fill="#F26F22"/>
<path d="M53.0382 52.0917C53.0382 52.8733 52.8961 53.5602 52.6119 54.1524C52.3276 54.7445 51.9486 55.1946 51.4275 55.5262C50.9064 55.8578 50.3143 55.9999 49.6511 55.9999C48.9879 55.9999 48.3957 55.8341 47.8746 55.5262C47.3535 55.2183 46.9508 54.7445 46.6666 54.1761C46.3824 53.5839 46.2402 52.9207 46.2402 52.139V51.7364C46.2402 50.9547 46.3824 50.2678 46.6666 49.6757C46.9508 49.0835 47.3535 48.6335 47.8746 48.3019C48.3957 47.9939 48.9879 47.8281 49.6511 47.8281C50.3143 47.8281 50.9064 47.9939 51.4275 48.3019C51.9486 48.6098 52.3513 49.0835 52.6356 49.6757C52.9198 50.2678 53.0619 50.9547 53.0619 51.7364V52.0917H53.0382ZM51.3802 51.7364C51.3802 50.9074 51.2381 50.2678 50.9301 49.8415C50.6222 49.4151 50.1959 49.2019 49.6511 49.2019C49.1063 49.2019 48.6799 49.4151 48.372 49.8415C48.0641 50.2678 47.922 50.9074 47.922 51.7364V52.1154C47.922 52.9207 48.0641 53.5602 48.372 54.0103C48.6799 54.4603 49.1063 54.6735 49.6748 54.6735C50.2195 54.6735 50.6459 54.4603 50.9538 54.034C51.2381 53.6076 51.4039 52.9681 51.4039 52.139V51.7364H51.3802Z" fill="#F26F22"/>
<path d="M60.5235 54.8867C60.2393 55.242 59.8129 55.5262 59.2681 55.7157C58.7234 55.9052 58.1312 55.9999 57.468 55.9999C56.7811 55.9999 56.1652 55.8578 55.6441 55.5499C55.123 55.242 54.7204 54.8156 54.4361 54.2471C54.1519 53.6787 54.0098 52.9918 54.0098 52.2338V51.689C54.0098 50.8837 54.1519 50.1968 54.4124 49.6283C54.673 49.0361 55.0757 48.6098 55.5731 48.3019C56.0705 47.9939 56.6626 47.8281 57.3495 47.8281C58.297 47.8281 59.0313 48.065 59.5761 48.515C60.0972 48.9651 60.4288 49.6283 60.5235 50.481H58.9365C58.8655 50.031 58.6997 49.6993 58.4628 49.4862C58.2023 49.273 57.8706 49.1783 57.4206 49.1783C56.8521 49.1783 56.4258 49.3914 56.1415 49.8178C55.8573 50.2441 55.6915 50.86 55.6915 51.689V52.1864C55.6915 53.0154 55.8573 53.655 56.1652 54.0813C56.4731 54.5077 56.9469 54.7209 57.5627 54.7209C58.1786 54.7209 58.6286 54.5787 58.8892 54.3182V52.9444H57.3969V51.7364H60.5235V54.8867Z" fill="#F26F22"/>
<path d="M64.8103 52.968H63.5075V55.8815H61.8732V47.9229H64.834C65.7814 47.9229 66.492 48.136 67.0131 48.5624C67.5342 48.9887 67.7711 49.5809 67.7711 50.3389C67.7711 50.8836 67.6526 51.3337 67.4158 51.689C67.1789 52.0443 66.8236 52.3522 66.3499 52.5654L68.079 55.8104V55.8815H66.3262L64.8103 52.968ZM63.5075 51.6416H64.834C65.2366 51.6416 65.5682 51.5469 65.7814 51.3337C66.0183 51.1205 66.113 50.8363 66.113 50.4573C66.113 50.0783 65.9946 49.7941 65.7814 49.5809C65.5682 49.3677 65.2366 49.2493 64.8103 49.2493H63.4838V51.6416H63.5075Z" fill="#F26F22"/>
<path d="M73.5018 54.2471H70.612L70.0672 55.8815H68.3145L71.2752 47.9229H72.7912L75.7757 55.8815H74.0229L73.5018 54.2471ZM71.0621 52.9207H73.0517L72.0569 49.9362L71.0621 52.9207Z" fill="#F26F22"/>
<path d="M78.6889 47.9229L80.7259 53.7023L82.763 47.9229H84.9184V55.8815H83.2604V53.7023L83.4262 49.9362L81.2707 55.8815H80.1338L77.9783 49.9599L78.1441 53.7023V55.8815H76.5098V47.9229H78.6889Z" fill="#F26F22"/>
<path d="M88.5212 47.9229L90.5582 53.7023L92.5952 47.9229H94.7507V55.8815H93.0927V53.7023L93.2585 49.9362L91.103 55.8815H89.9661L87.8106 49.9599L87.9764 53.7023V55.8815H86.342V47.9229H88.5212Z" fill="#F26F22"/>
<path d="M100.98 52.4467H97.8297V54.5785H101.525V55.9049H96.1953V47.9463H101.525V49.2727H97.8297V51.1676H100.98V52.4467Z" fill="#F26F22"/>
</svg>
